<svg width="1200" height="280" viewBox="0 0 1200 280" fill="none" xmlns="http://www.w3.org/2000/svg" role="img" aria-labelledby="title desc">
  <title id="title">Aiden Wu profile banner</title>
  <desc id="desc">A dark blue banner with the text Aiden Wu and AI, OCR, document parsing, API compatibility.</desc>
  <defs>
    <linearGradient id="bg" x1="0" y1="0" x2="1200" y2="280" gradientUnits="userSpaceOnUse">
      <stop stop-color="#0F2027"/>
      <stop offset="0.5" stop-color="#203A43"/>
      <stop offset="1" stop-color="#2C5364"/>
    </linearGradient>
    <linearGradient id="accent" x1="930" y1="30" x2="1180" y2="250" gradientUnits="userSpaceOnUse">
      <stop stop-color="#61D4FF" stop-opacity="0.75"/>
      <stop offset="1" stop-color="#61D4FF" stop-opacity="0"/>
    </linearGradient>
  </defs>

  <rect width="1200" height="280" rx="24" fill="url(#bg)"/>
  <circle cx="1040" cy="92" r="116" fill="url(#accent)"/>
  <circle cx="1102" cy="198" r="44" fill="#8EE3F5" fill-opacity="0.22"/>
  <circle cx="968" cy="212" r="28" fill="#B8F2FF" fill-opacity="0.16"/>

  <path d="M0 216C86 180 155 166 226 176C292 185 349 218 421 224C505 231 568 195 639 171C736 139 815 144 891 171C975 202 1059 248 1200 228V280H0V216Z" fill="#FFFFFF" fill-opacity="0.06"/>

  <text x="74" y="112" fill="#FFFFFF" font-family="'Segoe UI', Arial, sans-serif" font-size="54" font-weight="700" letter-spacing="1">Aiden Wu</text>
  <text x="78" y="154" fill="#D6F4FF" font-family="'Segoe UI', Arial, sans-serif" font-size="23" font-weight="500">AI  /  OCR  /  Document Parsing  /  API Compatibility</text>

  <rect x="76" y="185" width="118" height="34" rx="17" fill="#FFFFFF" fill-opacity="0.12"/>
  <text x="105" y="208" fill="#FFFFFF" font-family="'Segoe UI', Arial, sans-serif" font-size="16" font-weight="600">Paddle</text>

  <rect x="208" y="185" width="154" height="34" rx="17" fill="#FFFFFF" fill-opacity="0.12"/>
  <text x="239" y="208" fill="#FFFFFF" font-family="'Segoe UI', Arial, sans-serif" font-size="16" font-weight="600">PaddleOCR</text>

  <rect x="376" y="185" width="116" height="34" rx="17" fill="#FFFFFF" fill-opacity="0.12"/>
  <text x="408" y="208" fill="#FFFFFF" font-family="'Segoe UI', Arial, sans-serif" font-size="16" font-weight="600">FastAPI</text>

  <rect x="506" y="185" width="96" height="34" rx="17" fill="#FFFFFF" fill-opacity="0.12"/>
  <text x="535" y="208" fill="#FFFFFF" font-family="'Segoe UI', Arial, sans-serif" font-size="16" font-weight="600">Vue 3</text>
</svg>
